<?xml version="1.0" encoding="UTF-8"?>
<!DOCTYPE svg PUBLIC "-//W3C//DTD SVG 1.1//EN" "http://www.w3.org/Graphics/SVG/1.1/DTD/svg11.dtd">
<svg xmlns="http://www.w3.org/2000/svg" version="1.1" width="270px" height="300px" style="shape-rendering:geometricPrecision; text-rendering:geometricPrecision; image-rendering:optimizeQuality; fill-rule:evenodd; clip-rule:evenodd" xmlns:xlink="http://www.w3.org/1999/xlink">
<g><path style="opacity:0.926" fill="#fab566" d="M 233.5,117.5 C 234.609,118.29 235.942,118.79 237.5,119C 243.491,119.499 249.491,119.666 255.5,119.5C 256.899,122.699 257.899,126.032 258.5,129.5C 258.294,132.495 258.96,135.162 260.5,137.5C 260.5,139.833 260.5,142.167 260.5,144.5C 257.674,144.002 255.34,142.669 253.5,140.5C 252.89,138.566 251.89,136.899 250.5,135.5C 249.503,133.006 247.67,131.34 245,130.5C 239.584,131.332 234.75,133.332 230.5,136.5C 229.513,139.713 228.513,143.046 227.5,146.5C 228.035,148.261 229.035,149.594 230.5,150.5C 233.495,152.493 236.495,154.493 239.5,156.5C 240.434,157.772 241.101,159.272 241.5,161C 241.387,162.28 240.72,163.113 239.5,163.5C 231.871,161.456 224.371,159.123 217,156.5C 216.517,155.552 216.351,154.552 216.5,153.5C 216.466,149.141 216.799,144.808 217.5,140.5C 217.639,138.117 216.972,136.117 215.5,134.5C 213.738,133.738 212.738,132.404 212.5,130.5C 212.829,127.772 212.163,125.438 210.5,123.5C 205.761,119.281 200.761,115.281 195.5,111.5C 192.64,108.673 190.64,109.339 189.5,113.5C 187.39,118.059 185.057,122.392 182.5,126.5C 181.094,126.973 180.427,127.973 180.5,129.5C 180.34,131.153 179.674,132.486 178.5,133.5C 177.326,134.514 176.66,135.847 176.5,137.5C 175.094,137.973 174.427,138.973 174.5,140.5C 171.323,147.527 167.656,154.194 163.5,160.5C 158.148,165.537 156.648,171.537 159,178.5C 159.852,179.571 160.685,180.571 161.5,181.5C 162.167,181.5 162.5,181.833 162.5,182.5C 162.833,183.5 163.5,184.167 164.5,184.5C 166.794,188.127 169.46,191.461 172.5,194.5C 173.5,194.833 174.167,195.5 174.5,196.5C 174.427,198.027 175.094,199.027 176.5,199.5C 177.5,199.833 178.167,200.5 178.5,201.5C 178.738,203.404 179.738,204.738 181.5,205.5C 182.5,205.833 183.167,206.5 183.5,207.5C 183.427,209.027 184.094,210.027 185.5,210.5C 187.843,213.207 190.177,215.874 192.5,218.5C 200.499,225.673 206.332,234.34 210,244.5C 210.497,247.146 210.664,249.813 210.5,252.5C 210.171,255.228 210.837,257.562 212.5,259.5C 213.338,259.842 213.672,260.508 213.5,261.5C 213.427,263.027 214.094,264.027 215.5,264.5C 217.008,266.181 218.008,268.181 218.5,270.5C 218.427,272.027 219.094,273.027 220.5,273.5C 222.025,275.216 223.025,277.216 223.5,279.5C 223.804,280.15 224.137,280.817 224.5,281.5C 230.612,282.438 236.279,284.438 241.5,287.5C 243.789,297.597 239.789,302.93 229.5,303.5C 203.915,303.248 177.915,303.248 151.5,303.5C 142.626,301.998 138.959,296.998 140.5,288.5C 142.34,286.832 144.34,285.332 146.5,284C 150.287,283.84 153.954,283.174 157.5,282C 160.755,276.928 163.755,271.762 166.5,266.5C 166.328,265.508 166.662,264.842 167.5,264.5C 169.539,263.089 170.539,261.089 170.5,258.5C 173.314,252.569 172.314,247.235 167.5,242.5C 165.11,240.733 163.443,238.4 162.5,235.5C 162.573,233.973 161.906,232.973 160.5,232.5C 157.931,229.039 155.597,225.372 153.5,221.5C 153.573,219.973 152.906,218.973 151.5,218.5C 149.478,216.469 147.811,214.135 146.5,211.5C 145.231,207.946 143.231,204.946 140.5,202.5C 139.662,202.158 139.328,201.492 139.5,200.5C 138.069,196.277 135.069,194.277 130.5,194.5C 124.811,192.145 120.811,188.145 118.5,182.5C 117.705,178.215 117.372,173.881 117.5,169.5C 117.796,167.597 118.463,165.93 119.5,164.5C 120.906,164.027 121.573,163.027 121.5,161.5C 121.5,160.833 121.833,160.5 122.5,160.5C 123.5,160.167 124.167,159.5 124.5,158.5C 126.424,156.305 128.091,153.972 129.5,151.5C 132.973,149.363 135.306,146.363 136.5,142.5C 136.738,140.596 137.738,139.262 139.5,138.5C 140.906,138.027 141.573,137.027 141.5,135.5C 143.262,134.738 144.262,133.404 144.5,131.5C 145.864,129.809 147.197,128.142 148.5,126.5C 149.906,126.027 150.573,125.027 150.5,123.5C 151.906,123.027 152.573,122.027 152.5,120.5C 154.587,119.415 155.92,117.749 156.5,115.5C 157.906,115.027 158.573,114.027 158.5,112.5C 159.906,112.027 160.573,111.027 160.5,109.5C 162.262,108.738 163.262,107.404 163.5,105.5C 163.5,104.833 163.833,104.5 164.5,104.5C 165.906,104.027 166.573,103.027 166.5,101.5C 167.692,99.8869 168.692,98.2202 169.5,96.5C 170.112,93.696 170.112,90.696 169.5,87.5C 169.263,86.209 169.596,85.209 170.5,84.5C 171.737,83.0351 172.737,81.3684 173.5,79.5C 179.932,72.1174 187.599,70.6174 196.5,75C 202.816,80.4554 206.983,87.2888 209,95.5C 213.712,100.543 218.045,105.877 222,111.5C 224.851,113.345 228.018,114.511 231.5,115C 232.381,115.708 233.047,116.542 233.5,117.5 Z M 192.5,79.5 C 195.775,80.2742 197.942,82.2742 199,85.5C 199.499,89.1516 199.665,92.8183 199.5,96.5C 198.197,98.1423 196.864,99.8089 195.5,101.5C 192.934,101.344 190.434,101.678 188,102.5C 186.37,101.287 184.536,100.454 182.5,100C 185.562,99.2585 188.562,99.4252 191.5,100.5C 193.756,99.5791 194.756,97.9124 194.5,95.5C 196.856,92.3798 197.022,89.0465 195,85.5C 194.184,84.1772 193.017,83.5106 191.5,83.5C 191.5,82.5 191.5,81.5 191.5,80.5C 189.03,80.6535 187.03,81.6535 185.5,83.5C 184.5,83.5 183.5,83.5 182.5,83.5C 182.5,82.5 182.5,81.5 182.5,80.5C 185.786,79.7929 189.119,79.4595 192.5,79.5 Z M 175.5,96.5 C 175.9,92.5595 177.067,88.8928 179,85.5C 178.746,89.7863 178.746,94.1197 179,98.5C 178.667,98.8333 178.333,99.1667 178,99.5C 177.623,98.0577 176.79,97.0577 175.5,96.5 Z M 207.5,101.5 C 209.992,104.469 212.492,107.469 215,110.5C 216.009,112.025 216.509,113.692 216.5,115.5C 215.504,115.414 214.671,115.748 214,116.5C 213.457,114.369 212.624,112.369 211.5,110.5C 210.692,110.808 210.025,111.308 209.5,112C 210.791,113.292 210.791,114.458 209.5,115.5C 209.167,115.5 208.833,115.5 208.5,115.5C 207.123,111.795 204.456,109.461 200.5,108.5C 200.5,107.167 200.5,105.833 200.5,104.5C 201.167,104.5 201.5,104.167 201.5,103.5C 203.315,102.37 205.315,101.704 207.5,101.5 Z M 174.5,104.5 C 176.858,106.678 179.525,108.345 182.5,109.5C 182.08,113.007 181.08,116.341 179.5,119.5C 177.992,121.181 176.992,123.181 176.5,125.5C 175.094,125.973 174.427,126.973 174.5,128.5C 173.662,128.842 173.328,129.508 173.5,130.5C 171.75,131.659 170.75,133.326 170.5,135.5C 169.326,136.514 168.66,137.847 168.5,139.5C 164.482,143.874 161.815,148.874 160.5,154.5C 159.662,154.842 159.328,155.508 159.5,156.5C 158.094,156.973 157.427,157.973 157.5,159.5C 156.395,160.6 155.062,161.267 153.5,161.5C 153.5,160.833 153.167,160.5 152.5,160.5C 152.108,158.821 151.608,157.154 151,155.5C 149.989,156.337 148.822,156.67 147.5,156.5C 146.713,154.896 145.38,154.229 143.5,154.5C 142.26,153.027 141.26,151.36 140.5,149.5C 141.788,147.261 142.788,144.928 143.5,142.5C 145.9,140.704 147.567,138.37 148.5,135.5C 149.5,135.167 150.167,134.5 150.5,133.5C 151.906,133.027 152.573,132.027 152.5,130.5C 153.167,130.5 153.5,130.167 153.5,129.5C 154.906,129.027 155.573,128.027 155.5,126.5C 157.192,124.795 158.525,122.795 159.5,120.5C 161.262,119.738 162.262,118.404 162.5,116.5C 163.906,116.027 164.573,115.027 164.5,113.5C 165.167,113.5 165.5,113.167 165.5,112.5C 168.521,109.709 171.521,107.042 174.5,104.5 Z M 228.5,122.5 C 229.598,123.601 229.765,124.934 229,126.5C 227.232,125.318 227.065,123.985 228.5,122.5 Z M 146.5,165.5 C 145.5,165.5 144.5,165.5 143.5,165.5C 143.717,161.94 144.717,161.94 146.5,165.5 Z M 130.5,178.5 C 130.5,179.5 130.5,180.5 130.5,181.5C 129.609,180.89 128.609,180.557 127.5,180.5C 127.762,177.252 127.762,174.252 127.5,171.5C 126.197,168.881 126.697,166.547 129,164.5C 129.174,169.351 129.674,174.018 130.5,178.5 Z M 137.5,161.5 C 139.5,161.5 140.5,162.5 140.5,164.5C 135.365,167.624 134.365,166.624 137.5,161.5 Z M 149.5,170.5 C 150.54,175.609 150.04,180.609 148,185.5C 146.414,186.376 144.914,187.376 143.5,188.5C 141.577,184.608 142.743,182.274 147,181.5C 147.248,178.081 147.748,174.747 148.5,171.5C 148.556,168.483 148.89,168.15 149.5,170.5 Z M 159.5,186.5 C 163.197,191.191 166.864,195.858 170.5,200.5C 170.554,202.632 171.554,203.965 173.5,204.5C 174.701,206.909 176.367,208.909 178.5,210.5C 179.63,212.315 180.296,214.315 180.5,216.5C 181.5,216.5 182.5,216.5 183.5,216.5C 183.833,217.5 184.5,218.167 185.5,218.5C 185.5,220.5 186.5,221.5 188.5,221.5C 188.328,222.492 188.662,223.158 189.5,223.5C 189.5,224.5 189.5,225.5 189.5,226.5C 188.5,226.5 187.5,226.5 186.5,226.5C 186.5,222.5 184.5,220.5 180.5,220.5C 180.665,223.518 180.498,226.518 180,229.5C 176.994,230.841 175.494,233.175 175.5,236.5C 174.603,237.598 173.77,237.598 173,236.5C 172.82,234.512 172.986,232.512 173.5,230.5C 169.896,230.951 166.896,229.951 164.5,227.5C 162.822,222.803 160.156,218.803 156.5,215.5C 156.774,211.798 155.108,209.465 151.5,208.5C 151.146,206.459 151.146,204.626 151.5,203C 150.692,201.294 149.359,200.461 147.5,200.5C 147.854,198.459 147.854,196.626 147.5,195C 148.381,194.292 149.047,193.458 149.5,192.5C 151.027,192.573 152.027,191.906 152.5,190.5C 153.167,190.5 153.5,190.167 153.5,189.5C 155.517,188.471 157.517,187.471 159.5,186.5 Z M 130.5,181.5 C 131.833,181.833 133.167,182.167 134.5,182.5C 136.167,182.5 137.833,182.5 139.5,182.5C 140.388,185.054 140.721,187.721 140.5,190.5C 137.834,190.067 135.168,189.567 132.5,189C 131.78,186.509 131.113,184.009 130.5,181.5 Z M 180.5,264.5 C 180.5,264.833 180.5,265.167 180.5,265.5C 179.71,266.609 179.21,267.942 179,269.5C 178.333,267.167 178.333,264.833 179,262.5C 179.278,263.416 179.778,264.082 180.5,264.5 Z"/></g>
<g><path style="opacity:0.206" fill="#c4c0bd" d="M 173.5,79.5 C 172.737,81.3684 171.737,83.0351 170.5,84.5C 170.259,81.9664 171.259,80.2998 173.5,79.5 Z"/></g>
<g><path style="opacity:0.333" fill="#d3cdc7" d="M 191.5,83.5 C 189.5,83.5 187.5,83.5 185.5,83.5C 187.03,81.6535 189.03,80.6535 191.5,80.5C 191.5,81.5 191.5,82.5 191.5,83.5 Z"/></g>
<g><path style="opacity:0.959" fill="#fdb561" d="M 185.5,83.5 C 187.5,83.5 189.5,83.5 191.5,83.5C 194.115,87.0088 195.115,91.0088 194.5,95.5C 190.07,99.4698 185.57,99.4698 181,95.5C 179.309,90.1311 180.809,86.1311 185.5,83.5 Z"/></g>
<g><path style="opacity:0.98" fill="#f9ce9e" d="M 188.5,89.5 C 187.5,89.5 186.5,89.5 185.5,89.5C 185.5,90.8333 185.5,92.1667 185.5,93.5C 186.5,93.5 187.5,93.5 188.5,93.5C 187.432,94.4345 186.099,94.7678 184.5,94.5C 184.5,92.5 184.5,90.5 184.5,88.5C 186.099,88.2322 187.432,88.5655 188.5,89.5 Z"/></g>
<g><path style="opacity:0.862" fill="#f4ece4" d="M 188.5,89.5 C 189.586,89.62 190.253,90.2867 190.5,91.5C 190.253,92.7133 189.586,93.38 188.5,93.5C 187.5,93.5 186.5,93.5 185.5,93.5C 185.5,92.1667 185.5,90.8333 185.5,89.5C 186.5,89.5 187.5,89.5 188.5,89.5 Z"/></g>
<g><path style="opacity:0.235" fill="#dbcab7" d="M 169.5,87.5 C 170.112,90.696 170.112,93.696 169.5,96.5C 168.319,93.3623 168.319,90.3623 169.5,87.5 Z"/></g>
<g><path style="opacity:0.094" fill="#e4d9c8" d="M 191.5,83.5 C 193.017,83.5106 194.184,84.1772 195,85.5C 197.022,89.0465 196.856,92.3798 194.5,95.5C 195.115,91.0088 194.115,87.0088 191.5,83.5 Z"/></g>
<g><path style="opacity:0.125" fill="#e6dace" d="M 192.5,79.5 C 189.119,79.4595 185.786,79.7929 182.5,80.5C 182.5,81.5 182.5,82.5 182.5,83.5C 183.5,83.5 184.5,83.5 185.5,83.5C 180.809,86.1311 179.309,90.1311 181,95.5C 185.57,99.4698 190.07,99.4698 194.5,95.5C 194.756,97.9124 193.756,99.5791 191.5,100.5C 188.562,99.4252 185.562,99.2585 182.5,100C 184.536,100.454 186.37,101.287 188,102.5C 190.434,101.678 192.934,101.344 195.5,101.5C 195.5,101.833 195.5,102.167 195.5,102.5C 186.692,106.762 180.025,104.762 175.5,96.5C 172.537,88.2501 175.204,82.4167 183.5,79C 186.696,78.1955 189.696,78.3622 192.5,79.5 Z M 175.5,96.5 C 176.79,97.0577 177.623,98.0577 178,99.5C 178.333,99.1667 178.667,98.8333 179,98.5C 178.746,94.1197 178.746,89.7863 179,85.5C 177.067,88.8928 175.9,92.5595 175.5,96.5 Z"/></g>
<g><path style="opacity:0.506" fill="#eac6a0" d="M 199.5,96.5 C 199.378,99.2921 198.044,101.292 195.5,102.5C 195.5,102.167 195.5,101.833 195.5,101.5C 196.864,99.8089 198.197,98.1423 199.5,96.5 Z"/></g>
<g><path style="opacity:0.129" fill="#d6cdc5" d="M 207.5,101.5 C 205.315,101.704 203.315,102.37 201.5,103.5C 202.64,99.3393 204.64,98.6726 207.5,101.5 Z"/></g>
<g><path style="opacity:0.502" fill="#d9bfa1" d="M 166.5,101.5 C 166.573,103.027 165.906,104.027 164.5,104.5C 164.427,102.973 165.094,101.973 166.5,101.5 Z"/></g>
<g><path style="opacity:0.118" fill="#d7cbc2" d="M 200.5,104.5 C 200.5,105.833 200.5,107.167 200.5,108.5C 197.833,107.167 197.833,105.833 200.5,104.5 Z"/></g>
<g><path style="opacity:0.51" fill="#d9bd9f" d="M 163.5,105.5 C 163.262,107.404 162.262,108.738 160.5,109.5C 160.738,107.596 161.738,106.262 163.5,105.5 Z"/></g>
<g><path style="opacity:0.235" fill="#f1e3d5" d="M 174.5,104.5 C 171.521,107.042 168.521,109.709 165.5,112.5C 167.353,109.305 169.353,106.139 171.5,103C 172.998,102.415 173.998,102.915 174.5,104.5 Z"/></g>
<g><path style="opacity:0.229" fill="#cccbca" d="M 195.5,111.5 C 194.504,111.414 193.671,111.748 193,112.5C 192.667,113.833 192.333,115.167 192,116.5C 191.623,115.058 190.79,114.058 189.5,113.5C 190.64,109.339 192.64,108.673 195.5,111.5 Z"/></g>
<g><path style="opacity:0.38" fill="#bdb3aa" d="M 160.5,109.5 C 160.573,111.027 159.906,112.027 158.5,112.5C 158.427,110.973 159.094,109.973 160.5,109.5 Z"/></g>
<g><path style="opacity:0.384" fill="#e7dac4" d="M 182.5,109.5 C 183.497,109.47 184.164,109.97 184.5,111C 183.444,114.293 181.777,117.126 179.5,119.5C 181.08,116.341 182.08,113.007 182.5,109.5 Z"/></g>
<g><path style="opacity:0.125" fill="#f5e3d4" d="M 200.5,108.5 C 204.456,109.461 207.123,111.795 208.5,115.5C 205.808,113.138 203.141,110.804 200.5,108.5 Z"/></g>
<g><path style="opacity:0.45" fill="#ded5ca" d="M 216.5,115.5 C 214.167,119.5 211.833,119.5 209.5,115.5C 210.791,114.458 210.791,113.292 209.5,112C 210.025,111.308 210.692,110.808 211.5,110.5C 212.624,112.369 213.457,114.369 214,116.5C 214.671,115.748 215.504,115.414 216.5,115.5 Z"/></g>
<g><path style="opacity:0.361" fill="#d1bba5" d="M 158.5,112.5 C 158.573,114.027 157.906,115.027 156.5,115.5C 156.427,113.973 157.094,112.973 158.5,112.5 Z"/></g>
<g><path style="opacity:0.016" fill="#fcefe0" d="M 164.5,113.5 C 164.573,115.027 163.906,116.027 162.5,116.5C 162.427,114.973 163.094,113.973 164.5,113.5 Z"/></g>
<g><path style="opacity:0.18" fill="#f8ece2" d="M 162.5,116.5 C 162.262,118.404 161.262,119.738 159.5,120.5C 159.738,118.596 160.738,117.262 162.5,116.5 Z"/></g>
<g><path style="opacity:0.427" fill="#c7b39d" d="M 233.5,117.5 C 241.014,117.796 248.347,118.462 255.5,119.5C 249.491,119.666 243.491,119.499 237.5,119C 235.942,118.79 234.609,118.29 233.5,117.5 Z"/></g>
<g><path style="opacity:0.38" fill="#d3b89f" d="M 156.5,115.5 C 155.92,117.749 154.587,119.415 152.5,120.5C 153.08,118.251 154.413,116.585 156.5,115.5 Z"/></g>
<g><path style="opacity:0.673" fill="#f5ebe1" d="M 227.5,119.5 C 225.393,120.468 223.059,120.802 220.5,120.5C 220.5,123.833 220.5,127.167 220.5,130.5C 222.735,130.205 224.735,130.539 226.5,131.5C 220.504,133.66 217.171,131.494 216.5,125C 217.891,118.97 221.558,117.137 227.5,119.5 Z"/></g>
<g><path style="opacity:0.59" fill="#e3ceb8" d="M 227.5,119.5 C 228.5,119.833 229.167,120.5 229.5,121.5C 226.833,121.5 224.167,121.5 221.5,121.5C 221.5,124.167 221.5,126.833 221.5,129.5C 223.833,129.5 226.167,129.5 228.5,129.5C 228.167,130.5 227.5,131.167 226.5,131.5C 224.735,130.539 222.735,130.205 220.5,130.5C 220.5,127.167 220.5,123.833 220.5,120.5C 223.059,120.802 225.393,120.468 227.5,119.5 Z"/></g>
<g><path style="opacity:0.389" fill="#cac8c8" d="M 229.5,121.5 C 230.152,122.449 230.486,123.615 230.5,125C 230.693,127.008 230.026,128.508 228.5,129.5C 226.167,129.5 223.833,129.5 221.5,129.5C 221.5,126.833 221.5,124.167 221.5,121.5C 224.167,121.5 226.833,121.5 229.5,121.5 Z M 228.5,122.5 C 227.065,123.985 227.232,125.318 229,126.5C 229.765,124.934 229.598,123.601 228.5,122.5 Z"/></g>
<g><path style="opacity:0.298" fill="#d0c0ad" d="M 152.5,120.5 C 152.573,122.027 151.906,123.027 150.5,123.5C 150.427,121.973 151.094,120.973 152.5,120.5 Z"/></g>
<g><path style="opacity:0.911" fill="#e4d8cc" d="M 236.5,123.5 C 241.833,123.5 247.167,123.5 252.5,123.5C 253.188,128.242 252.188,129.075 249.5,126C 245.141,125.466 240.808,125.632 236.5,126.5C 236.5,125.5 236.5,124.5 236.5,123.5 Z"/></g>
<g><path style="opacity:0.408" fill="#d0baa3" d="M 150.5,123.5 C 150.573,125.027 149.906,126.027 148.5,126.5C 148.427,124.973 149.094,123.973 150.5,123.5 Z"/></g>
<g><path style="opacity:0.396" fill="#cfb69b" d="M 210.5,123.5 C 212.163,125.438 212.829,127.772 212.5,130.5C 211.388,128.401 210.721,126.067 210.5,123.5 Z"/></g>
<g><path style="opacity:0.031" fill="#fcefe1" d="M 155.5,126.5 C 155.573,128.027 154.906,129.027 153.5,129.5C 153.427,127.973 154.094,126.973 155.5,126.5 Z"/></g>
<g><path style="opacity:0.208" fill="#fbebdd" d="M 176.5,125.5 C 176.573,127.027 175.906,128.027 174.5,128.5C 174.427,126.973 175.094,125.973 176.5,125.5 Z"/></g>
<g><path style="opacity:0.016" fill="#bdb5ae" d="M 182.5,126.5 C 182.573,128.027 181.906,129.027 180.5,129.5C 180.427,127.973 181.094,126.973 182.5,126.5 Z"/></g>
<g><path style="opacity:0.243" fill="#dec9b4" d="M 152.5,130.5 C 152.573,132.027 151.906,133.027 150.5,133.5C 150.427,131.973 151.094,130.973 152.5,130.5 Z"/></g>
<g><path style="opacity:0.267" fill="#f9efe3" d="M 173.5,130.5 C 173.25,132.674 172.25,134.341 170.5,135.5C 170.75,133.326 171.75,131.659 173.5,130.5 Z"/></g>
<g><path style="opacity:0.824" fill="#dac0a4" d="M 258.5,129.5 C 260.223,131.78 260.889,134.447 260.5,137.5C 258.96,135.162 258.294,132.495 258.5,129.5 Z"/></g>
<g><path style="opacity:0.306" fill="#e0d6ca" d="M 144.5,131.5 C 144.262,133.404 143.262,134.738 141.5,135.5C 141.738,133.596 142.738,132.262 144.5,131.5 Z"/></g>
<g><path style="opacity:0.016" fill="#c4c2c1" d="M 178.5,133.5 C 178.771,135.38 178.104,136.713 176.5,137.5C 176.66,135.847 177.326,134.514 178.5,133.5 Z"/></g>
<g><path style="opacity:0.055" fill="#f3ebdb" d="M 148.5,135.5 C 147.567,138.37 145.9,140.704 143.5,142.5C 144.433,139.63 146.1,137.296 148.5,135.5 Z"/></g>
<g><path style="opacity:0.392" fill="#ccb5a3" d="M 141.5,135.5 C 141.573,137.027 140.906,138.027 139.5,138.5C 139.427,136.973 140.094,135.973 141.5,135.5 Z"/></g>
<g><path style="opacity:0.008" fill="#fefffe" d="M 212.5,137.5 C 213.833,138.167 213.833,138.167 212.5,137.5 Z"/></g>
<g><path style="opacity:0.173" fill="#c9beb6" d="M 176.5,137.5 C 176.573,139.027 175.906,140.027 174.5,140.5C 174.427,138.973 175.094,137.973 176.5,137.5 Z"/></g>
<g><path style="opacity:0.533" fill="#edc394" d="M 224.5,140.5 C 224.631,139.624 224.298,138.957 223.5,138.5C 222.342,143.099 221.675,147.766 221.5,152.5C 220.513,147.695 220.179,142.695 220.5,137.5C 222.167,137.5 223.833,137.5 225.5,137.5C 225.737,138.791 225.404,139.791 224.5,140.5 Z"/></g>
<g><path style="opacity:0.247" fill="#c6c4c0" d="M 250.5,135.5 C 251.89,136.899 252.89,138.566 253.5,140.5C 251.241,139.656 250.241,137.989 250.5,135.5 Z"/></g>
<g><path style="opacity:0.175" fill="#c9beb2" d="M 215.5,134.5 C 216.972,136.117 217.639,138.117 217.5,140.5C 216.799,144.808 216.466,149.141 216.5,153.5C 215.51,147.355 215.177,141.022 215.5,134.5 Z"/></g>
<g><path style="opacity:0.566" fill="#cec8c2" d="M 230.5,136.5 C 230.5,141.167 230.5,145.833 230.5,150.5C 229.035,149.594 228.035,148.261 227.5,146.5C 228.513,143.046 229.513,139.713 230.5,136.5 Z"/></g>
<g><path style="opacity:0.491" fill="#e4dacf" d="M 224.5,140.5 C 223.624,143.799 223.457,147.132 224,150.5C 224.5,152.333 225.667,153.5 227.5,154C 225.119,154.738 223.119,154.238 221.5,152.5C 221.675,147.766 222.342,143.099 223.5,138.5C 224.298,138.957 224.631,139.624 224.5,140.5 Z"/></g>
<g><path style="opacity:0.02" fill="#fefffe" d="M 235.5,146.5 C 236.525,146.897 236.692,147.563 236,148.5C 235.536,147.906 235.369,147.239 235.5,146.5 Z"/></g>
<g><path style="opacity:0.529" fill="#dac4ac" d="M 136.5,142.5 C 135.306,146.363 132.973,149.363 129.5,151.5C 131.458,148.208 133.791,145.208 136.5,142.5 Z"/></g>
<g><path style="opacity:0.36" fill="#d7c9bd" d="M 168.5,139.5 C 166.593,144.984 163.927,149.984 160.5,154.5C 161.815,148.874 164.482,143.874 168.5,139.5 Z"/></g>
<g><path style="opacity:0.475" fill="#e7d6c5" d="M 143.5,142.5 C 142.788,144.928 141.788,147.261 140.5,149.5C 141.26,151.36 142.26,153.027 143.5,154.5C 140.753,154.813 138.086,154.48 135.5,153.5C 137.454,149.234 140.121,145.567 143.5,142.5 Z"/></g>
<g><path style="opacity:0.102" fill="#c1bbb5" d="M 230.5,150.5 C 231.873,150.343 233.207,150.51 234.5,151C 236.037,152.707 237.704,154.207 239.5,155.5C 239.5,155.833 239.5,156.167 239.5,156.5C 236.495,154.493 233.495,152.493 230.5,150.5 Z"/></g>
<g><path style="opacity:0.031" fill="#bebfbe" d="M 239.5,154.5 C 240.833,155.167 240.833,155.167 239.5,154.5 Z"/></g>
<g><path style="opacity:0.173" fill="#feefdb" d="M 143.5,154.5 C 145.38,154.229 146.713,154.896 147.5,156.5C 145.847,156.34 144.514,155.674 143.5,154.5 Z"/></g>
<g><path style="opacity:0.039" fill="#ead7c1" d="M 152.5,160.5 C 150.809,159.136 149.142,157.803 147.5,156.5C 148.822,156.67 149.989,156.337 151,155.5C 151.608,157.154 152.108,158.821 152.5,160.5 Z"/></g>
<g><path style="opacity:0.298" fill="#d7c9b9" d="M 159.5,156.5 C 159.573,158.027 158.906,159.027 157.5,159.5C 157.427,157.973 158.094,156.973 159.5,156.5 Z"/></g>
<g><path style="opacity:0.345" fill="#dfd4c7" d="M 124.5,158.5 C 124.167,159.5 123.5,160.167 122.5,160.5C 122.5,159.167 123.167,158.5 124.5,158.5 Z"/></g>
<g><path style="opacity:0.351" fill="#d5c9be" d="M 157.5,159.5 C 157.088,163.337 155.754,164.004 153.5,161.5C 155.062,161.267 156.395,160.6 157.5,159.5 Z"/></g>
<g><path style="opacity:0.373" fill="#e6d5c4" d="M 121.5,161.5 C 121.573,163.027 120.906,164.027 119.5,164.5C 119.427,162.973 120.094,161.973 121.5,161.5 Z"/></g>
<g><path style="opacity:0.393" fill="#d8d0c6" d="M 129.5,161.5 C 130.482,164.962 130.815,168.629 130.5,172.5C 130.5,174.5 130.5,176.5 130.5,178.5C 129.674,174.018 129.174,169.351 129,164.5C 126.697,166.547 126.197,168.881 127.5,171.5C 125.5,171.5 123.5,171.5 121.5,171.5C 123.143,167.206 125.81,163.873 129.5,161.5 Z"/></g>
<g><path style="opacity:0.165" fill="#cecbc8" d="M 132.5,159.5 C 144.07,157.924 151.07,162.758 153.5,174C 153.347,176.216 153.014,178.383 152.5,180.5C 152.119,176.881 151.119,173.548 149.5,170.5C 148.89,168.15 148.556,168.483 148.5,171.5C 146.784,171.371 145.117,171.038 143.5,170.5C 143.167,169.5 142.5,168.833 141.5,168.5C 141.5,165.833 141.5,163.167 141.5,160.5C 138.287,160.81 135.287,160.477 132.5,159.5 Z M 146.5,165.5 C 144.717,161.94 143.717,161.94 143.5,165.5C 144.5,165.5 145.5,165.5 146.5,165.5 Z"/></g>
<g><path style="opacity:0.329" fill="#f0dac0" d="M 132.5,159.5 C 135.287,160.477 138.287,160.81 141.5,160.5C 141.5,163.167 141.5,165.833 141.5,168.5C 140.508,168.672 139.842,168.338 139.5,167.5C 140.404,166.791 140.737,165.791 140.5,164.5C 140.5,162.5 139.5,161.5 137.5,161.5C 135.5,161.5 133.5,161.5 131.5,161.5C 131.198,164.059 131.532,166.393 132.5,168.5C 132.011,169.995 131.345,171.329 130.5,172.5C 130.815,168.629 130.482,164.962 129.5,161.5C 129.973,160.094 130.973,159.427 132.5,159.5 Z M 137.5,161.5 C 139.5,161.5 140.5,162.5 140.5,164.5C 135.365,167.624 134.365,166.624 137.5,161.5 Z"/></g>
<g><path style="opacity:0.198" fill="#fefaf7" d="M 137.5,161.5 C 134.365,166.624 135.365,167.624 140.5,164.5C 140.737,165.791 140.404,166.791 139.5,167.5C 137.05,167.298 134.717,167.631 132.5,168.5C 131.532,166.393 131.198,164.059 131.5,161.5C 133.5,161.5 135.5,161.5 137.5,161.5 Z"/></g>
<g><path style="opacity:0.96" fill="#fcb664" d="M 139.5,167.5 C 139.842,168.338 140.508,168.672 141.5,168.5C 142.5,168.833 143.167,169.5 143.5,170.5C 145.526,175.757 144.193,179.757 139.5,182.5C 137.833,182.5 136.167,182.5 134.5,182.5C 133.167,181.167 131.833,179.833 130.5,178.5C 130.5,176.5 130.5,174.5 130.5,172.5C 131.345,171.329 132.011,169.995 132.5,168.5C 134.717,167.631 137.05,167.298 139.5,167.5 Z"/></g>
<g><path style="opacity:0.331" fill="#fcf8f5" d="M 121.5,171.5 C 123.5,171.5 125.5,171.5 127.5,171.5C 127.762,174.252 127.762,177.252 127.5,180.5C 125.833,180.5 124.167,180.5 122.5,180.5C 121.701,177.57 121.368,174.57 121.5,171.5 Z"/></g>
<g><path style="opacity:0.345" fill="#c3b2a1" d="M 117.5,169.5 C 117.372,173.881 117.705,178.215 118.5,182.5C 116.967,180.366 116.3,177.866 116.5,175C 116.506,172.967 116.839,171.134 117.5,169.5 Z"/></g>
<g><path style="opacity:1" fill="#d0c6bd" d="M 135.5,171.5 C 139.529,171.666 140.862,173.499 139.5,177C 138.207,177.49 136.873,177.657 135.5,177.5C 135.5,175.5 135.5,173.5 135.5,171.5 Z"/></g>
<g><path style="opacity:0.35" fill="#d6ccc3" d="M 163.5,160.5 C 161.137,167.368 160.47,174.368 161.5,181.5C 160.685,180.571 159.852,179.571 159,178.5C 156.648,171.537 158.148,165.537 163.5,160.5 Z"/></g>
<g><path style="opacity:0.157" fill="#feebdc" d="M 130.5,178.5 C 131.833,179.833 133.167,181.167 134.5,182.5C 133.167,182.167 131.833,181.833 130.5,181.5C 130.5,180.5 130.5,179.5 130.5,178.5 Z"/></g>
<g><path style="opacity:0.055" fill="#c1bdbc" d="M 162.5,182.5 C 163.833,182.5 164.5,183.167 164.5,184.5C 163.5,184.167 162.833,183.5 162.5,182.5 Z"/></g>
<g><path style="opacity:0.086" fill="#fdefe3" d="M 159.5,186.5 C 157.517,187.471 155.517,188.471 153.5,189.5C 154.085,187.078 155.585,185.411 158,184.5C 158.717,185.044 159.217,185.711 159.5,186.5 Z"/></g>
<g><path style="opacity:0.261" fill="#e1d5c9" d="M 143.5,170.5 C 145.117,171.038 146.784,171.371 148.5,171.5C 147.748,174.747 147.248,178.081 147,181.5C 142.743,182.274 141.577,184.608 143.5,188.5C 144.914,187.376 146.414,186.376 148,185.5C 150.04,180.609 150.54,175.609 149.5,170.5C 151.119,173.548 152.119,176.881 152.5,180.5C 150.01,187.171 145.177,190.837 138,191.5C 130.44,191.142 125.274,187.475 122.5,180.5C 124.167,180.5 125.833,180.5 127.5,180.5C 128.609,180.557 129.609,180.89 130.5,181.5C 131.113,184.009 131.78,186.509 132.5,189C 135.168,189.567 137.834,190.067 140.5,190.5C 140.721,187.721 140.388,185.054 139.5,182.5C 144.193,179.757 145.526,175.757 143.5,170.5 Z M 130.5,181.5 C 131.833,181.833 133.167,182.167 134.5,182.5C 136.167,182.5 137.833,182.5 139.5,182.5C 140.388,185.054 140.721,187.721 140.5,190.5C 137.834,190.067 135.168,189.567 132.5,189C 131.78,186.509 131.113,184.009 130.5,181.5 Z"/></g>
<g><path style="opacity:0.212" fill="#c2bab3" d="M 164.5,184.5 C 168.3,186.963 170.967,190.296 172.5,194.5C 169.46,191.461 166.794,188.127 164.5,184.5 Z"/></g>
<g><path style="opacity:0.071" fill="#f2dfc6" d="M 152.5,190.5 C 152.027,191.906 151.027,192.573 149.5,192.5C 149.973,191.094 150.973,190.427 152.5,190.5 Z"/></g>
<g><path style="opacity:0.192" fill="#c6baac" d="M 130.5,194.5 C 135.069,194.277 138.069,196.277 139.5,200.5C 136.945,197.73 133.945,195.73 130.5,194.5 Z"/></g>
<g><path style="opacity:0.214" fill="#fdf8f1" d="M 149.5,192.5 C 149.047,193.458 148.381,194.292 147.5,195C 147.854,196.626 147.854,198.459 147.5,200.5C 146.833,200.5 146.167,200.5 145.5,200.5C 142.554,196.045 143.887,193.379 149.5,192.5 Z"/></g>
<g><path style="opacity:0.306" fill="#c2b19f" d="M 174.5,196.5 C 175.906,196.973 176.573,197.973 176.5,199.5C 175.094,199.027 174.427,198.027 174.5,196.5 Z"/></g>
<g><path style="opacity:0.597" fill="#d9cdc2" d="M 145.5,200.5 C 146.167,200.5 146.833,200.5 147.5,200.5C 149.359,200.461 150.692,201.294 151.5,203C 151.146,204.626 151.146,206.459 151.5,208.5C 149.147,206.14 147.147,203.473 145.5,200.5 Z"/></g>
<g><path style="opacity:0.016" fill="#faf2e8" d="M 170.5,200.5 C 171.974,201.436 172.974,202.77 173.5,204.5C 171.554,203.965 170.554,202.632 170.5,200.5 Z"/></g>
<g><path style="opacity:0.322" fill="#cbb299" d="M 178.5,201.5 C 180.262,202.262 181.262,203.596 181.5,205.5C 179.738,204.738 178.738,203.404 178.5,201.5 Z"/></g>
<g><path style="opacity:0.306" fill="#c7c2bd" d="M 140.5,202.5 C 143.231,204.946 145.231,207.946 146.5,211.5C 142.333,210.063 140.333,207.063 140.5,202.5 Z"/></g>
<g><path style="opacity:0.369" fill="#cfb396" d="M 183.5,207.5 C 184.906,207.973 185.573,208.973 185.5,210.5C 184.094,210.027 183.427,209.027 183.5,207.5 Z"/></g>
<g><path style="opacity:0.286" fill="#d6cec3" d="M 151.5,208.5 C 155.108,209.465 156.774,211.798 156.5,215.5C 154.453,213.45 152.786,211.117 151.5,208.5 Z"/></g>
<g><path style="opacity:0.173" fill="#e5dfd6" d="M 185.5,210.5 C 189.548,211.575 191.881,214.242 192.5,218.5C 190.177,215.874 187.843,213.207 185.5,210.5 Z"/></g>
<g><path style="opacity:0.186" fill="#eadccd" d="M 178.5,210.5 C 180.89,211.891 182.557,213.891 183.5,216.5C 182.5,216.5 181.5,216.5 180.5,216.5C 180.296,214.315 179.63,212.315 178.5,210.5 Z"/></g>
<g><path style="opacity:0.205" fill="#cec9c5" d="M 156.5,215.5 C 160.156,218.803 162.822,222.803 164.5,227.5C 160.844,224.197 158.178,220.197 156.5,215.5 Z"/></g>
<g><path style="opacity:0.016" fill="#e9c0b2" d="M 151.5,218.5 C 152.906,218.973 153.573,219.973 153.5,221.5C 152.094,221.027 151.427,220.027 151.5,218.5 Z"/></g>
<g><path style="opacity:0.094" fill="#f4d8bc" d="M 185.5,218.5 C 186.833,219.167 187.833,220.167 188.5,221.5C 186.5,221.5 185.5,220.5 185.5,218.5 Z"/></g>
<g><path style="opacity:0.319" fill="#d3ccc5" d="M 189.5,223.5 C 191.728,224.322 192.395,225.655 191.5,227.5C 184.965,228.432 179.632,231.432 175.5,236.5C 175.494,233.175 176.994,230.841 180,229.5C 180.498,226.518 180.665,223.518 180.5,220.5C 184.5,220.5 186.5,222.5 186.5,226.5C 187.5,226.5 188.5,226.5 189.5,226.5C 189.5,225.5 189.5,224.5 189.5,223.5 Z"/></g>
<g><path style="opacity:0.264" fill="#e5d7c9" d="M 164.5,227.5 C 166.896,229.951 169.896,230.951 173.5,230.5C 172.986,232.512 172.82,234.512 173,236.5C 173.77,237.598 174.603,237.598 175.5,236.5C 175.205,238.423 174.372,240.09 173,241.5C 169.517,237.193 166.683,232.527 164.5,227.5 Z"/></g>
<g><path style="opacity:0.196" fill="#dacfbf" d="M 160.5,232.5 C 161.906,232.973 162.573,233.973 162.5,235.5C 161.094,235.027 160.427,234.027 160.5,232.5 Z"/></g>
<g><path style="opacity:0.989" fill="#fbf4ec" d="M 190.5,233.5 C 190.567,234.959 190.234,236.292 189.5,237.5C 187.668,238.248 186.001,239.248 184.5,240.5C 183.167,240.5 181.833,240.5 180.5,240.5C 180.5,243.833 180.5,247.167 180.5,250.5C 179.5,250.5 178.5,250.5 177.5,250.5C 177.5,249.167 177.5,247.833 177.5,246.5C 178.167,238.5 182.5,234.167 190.5,233.5 Z"/></g>
<g><path style="opacity:0.998" fill="#fcb563" d="M 189.5,237.5 C 192.743,237.914 195.743,238.914 198.5,240.5C 199.924,248.703 196.591,252.37 188.5,251.5C 187.391,251.443 186.391,251.11 185.5,250.5C 184.701,247.57 184.368,244.57 184.5,241.5C 184.5,241.167 184.5,240.833 184.5,240.5C 186.001,239.248 187.668,238.248 189.5,237.5 Z"/></g>
<g><path style="opacity:0.889" fill="#e6ccae" d="M 184.5,240.5 C 184.5,240.833 184.5,241.167 184.5,241.5C 183.5,241.5 182.5,241.5 181.5,241.5C 181.5,244.5 181.5,247.5 181.5,250.5C 182.833,250.5 184.167,250.5 185.5,250.5C 184.432,251.434 183.099,251.768 181.5,251.5C 181.5,252.5 181.5,253.5 181.5,254.5C 184.5,254.5 187.5,254.5 190.5,254.5C 194.042,254.187 197.375,254.521 200.5,255.5C 192.5,255.5 184.5,255.5 176.5,255.5C 176.19,252.287 176.523,249.287 177.5,246.5C 177.5,247.833 177.5,249.167 177.5,250.5C 178.5,250.5 179.5,250.5 180.5,250.5C 180.5,247.167 180.5,243.833 180.5,240.5C 181.833,240.5 183.167,240.5 184.5,240.5 Z"/></g>
<g><path style="opacity:0.899" fill="#cdc8c4" d="M 184.5,241.5 C 184.368,244.57 184.701,247.57 185.5,250.5C 184.167,250.5 182.833,250.5 181.5,250.5C 181.5,247.5 181.5,244.5 181.5,241.5C 182.5,241.5 183.5,241.5 184.5,241.5 Z"/></g>
<g><path style="opacity:0.998" fill="#f1e3d6" d="M 189.5,242.5 C 190.833,242.5 192.167,242.5 193.5,242.5C 193.5,244.167 193.5,245.833 193.5,247.5C 192.167,247.5 190.833,247.5 189.5,247.5C 189.5,245.833 189.5,244.167 189.5,242.5 Z"/></g>
<g><path style="opacity:0.667" fill="#d3cbc4" d="M 190.5,233.5 C 200.85,234.514 205.85,240.18 205.5,250.5C 204.167,250.5 202.833,250.5 201.5,250.5C 201.5,247.167 201.5,243.833 201.5,240.5C 200.5,240.5 199.5,240.5 198.5,240.5C 195.743,238.914 192.743,237.914 189.5,237.5C 190.234,236.292 190.567,234.959 190.5,233.5 Z"/></g>
<g><path style="opacity:0.37" fill="#cac4c0" d="M 167.5,242.5 C 172.314,247.235 173.314,252.569 170.5,258.5C 170.766,252.903 169.766,247.57 167.5,242.5 Z"/></g>
<g><path style="opacity:0.764" fill="#faf8f4" d="M 185.5,250.5 C 186.391,251.11 187.391,251.443 188.5,251.5C 189.167,252.5 189.833,253.5 190.5,254.5C 187.5,254.5 184.5,254.5 181.5,254.5C 181.5,253.5 181.5,252.5 181.5,251.5C 183.099,251.768 184.432,251.434 185.5,250.5 Z"/></g>
<g><path style="opacity:0.722" fill="#ebdccb" d="M 198.5,240.5 C 199.5,240.5 200.5,240.5 201.5,240.5C 201.5,243.833 201.5,247.167 201.5,250.5C 202.833,250.5 204.167,250.5 205.5,250.5C 205.5,252.167 205.5,253.833 205.5,255.5C 203.833,255.5 202.167,255.5 200.5,255.5C 197.375,254.521 194.042,254.187 190.5,254.5C 189.833,253.5 189.167,252.5 188.5,251.5C 196.591,252.37 199.924,248.703 198.5,240.5 Z"/></g>
<g><path style="opacity:0.22" fill="#cac0b3" d="M 210.5,252.5 C 211.612,254.599 212.279,256.933 212.5,259.5C 210.837,257.562 210.171,255.228 210.5,252.5 Z"/></g>
<g><path style="opacity:0.687" fill="#cecbc8" d="M 201.5,260.5 C 203.604,260.201 205.604,260.534 207.5,261.5C 211.431,267.697 215.098,274.031 218.5,280.5C 216.167,280.5 213.833,280.5 211.5,280.5C 211.5,277.167 211.5,273.833 211.5,270.5C 208.167,270.5 204.833,270.5 201.5,270.5C 201.5,267.167 201.5,263.833 201.5,260.5 Z"/></g>
<g><path style="opacity:0.325" fill="#d4cdc5" d="M 170.5,258.5 C 170.539,261.089 169.539,263.089 167.5,264.5C 167.992,262.181 168.992,260.181 170.5,258.5 Z"/></g>
<g><path style="opacity:0.173" fill="#e9e0d7" d="M 213.5,261.5 C 214.906,261.973 215.573,262.973 215.5,264.5C 214.094,264.027 213.427,263.027 213.5,261.5 Z"/></g>
<g><path style="opacity:0.133" fill="#fbf9f8" d="M 180.5,260.5 C 180.5,261.833 180.5,263.167 180.5,264.5C 179.778,264.082 179.278,263.416 179,262.5C 178.333,264.833 178.333,267.167 179,269.5C 179.21,267.942 179.71,266.609 180.5,265.5C 180.5,267.167 180.5,268.833 180.5,270.5C 178.833,270.5 177.167,270.5 175.5,270.5C 174.292,269.766 172.959,269.433 171.5,269.5C 172.111,263.845 175.111,260.845 180.5,260.5 Z"/></g>
<g><path style="opacity:0.347" fill="#cdcbcc" d="M 171.5,269.5 C 172.959,269.433 174.292,269.766 175.5,270.5C 176.919,271.451 178.585,271.784 180.5,271.5C 180.5,274.5 180.5,277.5 180.5,280.5C 177.5,280.5 174.5,280.5 171.5,280.5C 171.784,278.585 171.451,276.919 170.5,275.5C 170.443,274.391 170.11,273.391 169.5,272.5C 169.427,270.973 170.094,269.973 171.5,269.5 Z"/></g>
<g><path style="opacity:0.204" fill="#e3cfbf" d="M 218.5,270.5 C 219.906,270.973 220.573,271.973 220.5,273.5C 219.094,273.027 218.427,272.027 218.5,270.5 Z"/></g>
<g><path style="opacity:0.718" fill="#fdf6f1" d="M 169.5,272.5 C 170.11,273.391 170.443,274.391 170.5,275.5C 170.5,277.167 170.5,278.833 170.5,280.5C 168.5,280.5 166.5,280.5 164.5,280.5C 165.68,277.46 167.347,274.794 169.5,272.5 Z"/></g>
<g><path style="opacity:0.666" fill="#e9d6c1" d="M 180.5,260.5 C 187.5,260.5 194.5,260.5 201.5,260.5C 201.5,263.833 201.5,267.167 201.5,270.5C 204.833,270.5 208.167,270.5 211.5,270.5C 211.5,273.833 211.5,277.167 211.5,280.5C 213.833,280.5 216.167,280.5 218.5,280.5C 219.043,280.56 219.376,280.893 219.5,281.5C 218.624,282.251 217.624,282.751 216.5,283C 200.167,283.667 183.833,283.667 167.5,283C 166.062,282.781 164.729,282.281 163.5,281.5C 163.624,280.893 163.957,280.56 164.5,280.5C 166.5,280.5 168.5,280.5 170.5,280.5C 170.5,278.833 170.5,277.167 170.5,275.5C 171.451,276.919 171.784,278.585 171.5,280.5C 174.5,280.5 177.5,280.5 180.5,280.5C 180.5,277.5 180.5,274.5 180.5,271.5C 178.585,271.784 176.919,271.451 175.5,270.5C 177.167,270.5 178.833,270.5 180.5,270.5C 180.5,268.833 180.5,267.167 180.5,265.5C 180.5,265.167 180.5,264.833 180.5,264.5C 180.5,263.167 180.5,261.833 180.5,260.5 Z"/></g>
<g><path style="opacity:0.742" fill="#fafafa" d="M 201.5,271.5 C 204.5,271.5 207.5,271.5 210.5,271.5C 210.5,274.5 210.5,277.5 210.5,280.5C 207.5,280.5 204.5,280.5 201.5,280.5C 201.5,277.5 201.5,274.5 201.5,271.5 Z"/></g>
<g><path style="opacity:0.823" fill="#cacacc" d="M 191.5,271.5 C 194.5,271.5 197.5,271.5 200.5,271.5C 200.5,274.5 200.5,277.5 200.5,280.5C 197.5,280.5 194.5,280.5 191.5,280.5C 191.5,277.5 191.5,274.5 191.5,271.5 Z"/></g>
<g><path style="opacity:0.802" fill="#fafafa" d="M 181.5,271.5 C 184.5,271.5 187.5,271.5 190.5,271.5C 190.5,274.5 190.5,277.5 190.5,280.5C 187.5,280.5 184.5,280.5 181.5,280.5C 181.5,277.5 181.5,274.5 181.5,271.5 Z"/></g>
<g><path style="opacity:0.813" fill="#fcfcfc" d="M 191.5,261.5 C 194.5,261.5 197.5,261.5 200.5,261.5C 200.5,264.5 200.5,267.5 200.5,270.5C 197.5,270.5 194.5,270.5 191.5,270.5C 191.5,267.5 191.5,264.5 191.5,261.5 Z"/></g>
<g><path style="opacity:0.857" fill="#c9c9cb" d="M 181.5,261.5 C 184.5,261.5 187.5,261.5 190.5,261.5C 190.5,264.5 190.5,267.5 190.5,270.5C 187.5,270.5 184.5,270.5 181.5,270.5C 181.5,267.5 181.5,264.5 181.5,261.5 Z"/></g>
<g><path style="opacity:0.451" fill="#cbc7c3" d="M 166.5,266.5 C 163.755,271.762 160.755,276.928 157.5,282C 153.954,283.174 150.287,283.84 146.5,284C 144.34,285.332 142.34,286.832 140.5,288.5C 140.318,286.409 140.652,284.409 141.5,282.5C 146.826,281.225 152.159,280.058 157.5,279C 159.712,276.079 161.545,272.912 163,269.5C 164.039,268.29 165.206,267.29 166.5,266.5 Z"/></g>
<g><path style="opacity:0.247" fill="#f0eae6" d="M 223.5,279.5 C 228.36,280.988 233.36,281.821 238.5,282C 240.342,283.346 241.342,285.179 241.5,287.5C 236.279,284.438 230.612,282.438 224.5,281.5C 224.137,280.817 223.804,280.15 223.5,279.5 Z"/></g>
<g><path style="opacity:0.92" fill="#fbfbfb" d="M 211.5,288.5 C 215.012,287.945 218.012,288.612 220.5,290.5C 216.988,291.055 213.988,290.388 211.5,288.5 Z"/></g>
<g><path style="opacity:0.875" fill="#f8f7f4" d="M 233.5,288.5 C 235.027,288.427 236.027,289.094 236.5,290.5C 236.158,291.338 235.492,291.672 234.5,291.5C 233.5,291.5 232.5,291.5 231.5,291.5C 231.285,289.821 231.952,288.821 233.5,288.5 Z"/></g>
<g><path style="opacity:1" fill="#fbf5f0" d="M 150.5,297.5 C 146.5,298.167 144.833,296.5 145.5,292.5C 147.042,291.699 148.708,291.366 150.5,291.5C 150.5,293.5 150.5,295.5 150.5,297.5 Z"/></g>
<g><path style="opacity:1" fill="#f2e0cb" d="M 211.5,287.5 C 211.5,287.833 211.5,288.167 211.5,288.5C 213.988,290.388 216.988,291.055 220.5,290.5C 220.5,290.833 220.5,291.167 220.5,291.5C 217.5,291.5 214.5,291.5 211.5,291.5C 211.5,293.5 211.5,295.5 211.5,297.5C 211.167,297.5 210.833,297.5 210.5,297.5C 210.5,295.833 210.5,294.167 210.5,292.5C 207.5,292.5 204.5,292.5 201.5,292.5C 201.5,294.167 201.5,295.833 201.5,297.5C 201.167,297.5 200.833,297.5 200.5,297.5C 200.5,295.5 200.5,293.5 200.5,291.5C 197.5,291.5 194.5,291.5 191.5,291.5C 191.5,293.5 191.5,295.5 191.5,297.5C 191.167,297.5 190.833,297.5 190.5,297.5C 190.5,295.833 190.5,294.167 190.5,292.5C 187.5,292.5 184.5,292.5 181.5,292.5C 181.5,294.167 181.5,295.833 181.5,297.5C 181.167,297.5 180.833,297.5 180.5,297.5C 180.5,295.5 180.5,293.5 180.5,291.5C 177.5,291.5 174.5,291.5 171.5,291.5C 171.5,293.5 171.5,295.5 171.5,297.5C 171.167,297.5 170.833,297.5 170.5,297.5C 170.5,295.833 170.5,294.167 170.5,292.5C 167.5,292.5 164.5,292.5 161.5,292.5C 161.5,294.167 161.5,295.833 161.5,297.5C 161.167,297.5 160.833,297.5 160.5,297.5C 160.5,295.5 160.5,293.5 160.5,291.5C 157.5,291.5 154.5,291.5 151.5,291.5C 151.5,293.5 151.5,295.5 151.5,297.5C 151.5,297.833 151.5,298.167 151.5,298.5C 150.833,298.5 150.5,298.167 150.5,297.5C 150.5,295.5 150.5,293.5 150.5,291.5C 148.708,291.366 147.042,291.699 145.5,292.5C 145.859,290.629 146.859,289.129 148.5,288C 169.497,287.5 190.497,287.333 211.5,287.5 Z"/></g>
<g><path style="opacity:1" fill="#cfd0d0" d="M 160.5,297.5 C 157.5,297.5 154.5,297.5 151.5,297.5C 151.5,295.5 151.5,293.5 151.5,291.5C 154.5,291.5 157.5,291.5 160.5,291.5C 160.5,293.5 160.5,295.5 160.5,297.5 Z"/></g>
<g><path style="opacity:1" fill="#cfd0d0" d="M 201.5,288.5 C 204.5,288.5 207.5,288.5 210.5,288.5C 210.5,289.5 210.5,290.5 210.5,291.5C 207.5,291.5 204.5,291.5 201.5,291.5C 201.5,290.5 201.5,289.5 201.5,288.5 Z"/></g>
<g><path style="opacity:1" fill="#cfd0d0" d="M 181.5,288.5 C 184.5,288.5 187.5,288.5 190.5,288.5C 190.5,289.5 190.5,290.5 190.5,291.5C 187.5,291.5 184.5,291.5 181.5,291.5C 181.5,290.5 181.5,289.5 181.5,288.5 Z"/></g>
<g><path style="opacity:1" fill="#cfd0d0" d="M 161.5,288.5 C 164.5,288.5 167.5,288.5 170.5,288.5C 170.5,289.5 170.5,290.5 170.5,291.5C 167.5,291.5 164.5,291.5 161.5,291.5C 161.5,290.5 161.5,289.5 161.5,288.5 Z"/></g>
<g><path style="opacity:1" fill="#cfd0d0" d="M 180.5,297.5 C 177.5,297.5 174.5,297.5 171.5,297.5C 171.5,295.5 171.5,293.5 171.5,291.5C 174.5,291.5 177.5,291.5 180.5,291.5C 180.5,293.5 180.5,295.5 180.5,297.5 Z"/></g>
<g><path style="opacity:1" fill="#cfd0d0" d="M 200.5,297.5 C 197.5,297.5 194.5,297.5 191.5,297.5C 191.5,295.5 191.5,293.5 191.5,291.5C 194.5,291.5 197.5,291.5 200.5,291.5C 200.5,293.5 200.5,295.5 200.5,297.5 Z"/></g>
<g><path style="opacity:0.838" fill="#d0d0d0" d="M 220.5,291.5 C 220.5,293.5 220.5,295.5 220.5,297.5C 217.5,297.5 214.5,297.5 211.5,297.5C 211.5,295.5 211.5,293.5 211.5,291.5C 214.5,291.5 217.5,291.5 220.5,291.5 Z"/></g>
<g><path style="opacity:0.678" fill="#d1c7bf" d="M 236.5,290.5 C 238.33,293.978 237.33,296.311 233.5,297.5C 231.744,296.448 231.077,294.781 231.5,292.5C 232.791,292.737 233.791,292.404 234.5,291.5C 235.492,291.672 236.158,291.338 236.5,290.5 Z"/></g>
<g><path style="opacity:1" fill="#fbfdfb" d="M 170.5,297.5 C 167.5,297.5 164.5,297.5 161.5,297.5C 161.5,295.833 161.5,294.167 161.5,292.5C 164.5,292.5 167.5,292.5 170.5,292.5C 170.5,294.167 170.5,295.833 170.5,297.5 Z"/></g>
<g><path style="opacity:1" fill="#fbfdfb" d="M 190.5,297.5 C 187.5,297.5 184.5,297.5 181.5,297.5C 181.5,295.833 181.5,294.167 181.5,292.5C 184.5,292.5 187.5,292.5 190.5,292.5C 190.5,294.167 190.5,295.833 190.5,297.5 Z"/></g>
<g><path style="opacity:1" fill="#fbfdfb" d="M 210.5,297.5 C 207.5,297.5 204.5,297.5 201.5,297.5C 201.5,295.833 201.5,294.167 201.5,292.5C 204.5,292.5 207.5,292.5 210.5,292.5C 210.5,294.167 210.5,295.833 210.5,297.5 Z"/></g>
<g><path style="opacity:0.722" fill="#f0d2b0" d="M 211.5,288.5 C 211.5,288.167 211.5,287.833 211.5,287.5C 219.019,287.175 226.352,287.508 233.5,288.5C 231.952,288.821 231.285,289.821 231.5,291.5C 232.5,291.5 233.5,291.5 234.5,291.5C 233.791,292.404 232.791,292.737 231.5,292.5C 231.077,294.781 231.744,296.448 233.5,297.5C 206.338,298.498 179.005,298.831 151.5,298.5C 151.5,298.167 151.5,297.833 151.5,297.5C 154.5,297.5 157.5,297.5 160.5,297.5C 160.833,297.5 161.167,297.5 161.5,297.5C 164.5,297.5 167.5,297.5 170.5,297.5C 170.833,297.5 171.167,297.5 171.5,297.5C 174.5,297.5 177.5,297.5 180.5,297.5C 180.833,297.5 181.167,297.5 181.5,297.5C 184.5,297.5 187.5,297.5 190.5,297.5C 190.833,297.5 191.167,297.5 191.5,297.5C 194.5,297.5 197.5,297.5 200.5,297.5C 200.833,297.5 201.167,297.5 201.5,297.5C 204.5,297.5 207.5,297.5 210.5,297.5C 210.833,297.5 211.167,297.5 211.5,297.5C 214.5,297.5 217.5,297.5 220.5,297.5C 220.5,295.5 220.5,293.5 220.5,291.5C 220.5,291.167 220.5,290.833 220.5,290.5C 218.012,288.612 215.012,287.945 211.5,288.5 Z"/></g>
<g><path style="opacity:0.864" fill="#f9f9f7" d="M 221.5,291.5 C 224.5,291.5 227.5,291.5 230.5,291.5C 230.5,293.5 230.5,295.5 230.5,297.5C 227.5,297.5 224.5,297.5 221.5,297.5C 221.5,295.5 221.5,293.5 221.5,291.5 Z"/></g>
<g><path style="opacity:0.974" fill="#cac9ca" d="M 221.5,288.5 C 224.572,288.183 227.572,288.516 230.5,289.5C 229,289.833 227.5,290.167 226,290.5C 224.014,290.431 222.514,289.765 221.5,288.5 Z"/></g>
</svg>
